<svg xmlns="http://www.w3.org/2000/svg" viewBox="0 0 512 512" width="192" height="192"><defs><linearGradient id="b" x2="1" y2="1"><stop stop-color="#171719"/><stop offset=".55" stop-color="#050505"/><stop offset="1" stop-color="#260407"/></linearGradient><linearGradient id="r" x2=".8" y2="1"><stop stop-color="#ff4c52"/><stop offset=".5" stop-color="#e10600"/><stop offset="1" stop-color="#720008"/></linearGradient><filter id="g"><feGaussianBlur stdDeviation="8" result="x"/><feMerge><feMergeNode in="x"/><feMergeNode in="SourceGraphic"/></feMerge></filter></defs><rect width="512" height="512" rx="94" fill="url(#b)"/><rect x="10" y="10" width="492" height="492" rx="84" fill="none" stroke="#e10600" stroke-width="3"/><path d="M68 348 150 92l105 152L373 84l76 33-169 273-26-56-43 64Z" fill="#09090a" stroke="#500008" stroke-width="9"/><path d="M91 329 151 118l104 157 113-169 43 16-145 232-15-43-40 54Z" fill="url(#r)" stroke="#ff3939" stroke-width="4" filter="url(#g)"/><path d="m151 118 41 109 63 48-34 21-55-77-48 65Z" fill="#080808" stroke="#c5c5c5" stroke-width="4"/><path d="m368 106-62 120-47 129-15-43 36-78 46-81Z" fill="#161619" stroke="#ddd" stroke-width="4"/><path d="M42 420 115 394l34 14 54-18 48 23 59-22 55 18 105-32" fill="none" stroke="#e10600" stroke-width="3"/><text x="256" y="464" text-anchor="middle" font-family="Arial,sans-serif" font-size="49" font-weight="900" font-style="italic" letter-spacing="-2" fill="#f5f5f5">VEXARO</text></svg>