<svg xmlns="http://www.w3.org/2000/svg" viewBox="0 0 1920 1080" width="1920" height="1080">
<defs>
 <linearGradient id="base" x2="1" y2="1"><stop stop-color="#09090b"/><stop offset=".52" stop-color="#050506"/><stop offset="1" stop-color="#160205"/></linearGradient>
 <radialGradient id="red"><stop stop-color="#b20b12" stop-opacity=".65"/><stop offset="1" stop-color="#e10600" stop-opacity="0"/></radialGradient>
 <linearGradient id="metal" x2="0" y2="1"><stop stop-color="#f7f7f7"/><stop offset=".5" stop-color="#77777d"/><stop offset="1" stop-color="#202024"/></linearGradient>
 <pattern id="grid" width="64" height="64" patternUnits="userSpaceOnUse"><path d="M64 0H0V64" fill="none" stroke="#fff" stroke-opacity=".045" stroke-width="1"/></pattern>
 <filter id="blur"><feGaussianBlur stdDeviation="36"/></filter>
</defs>
<rect width="1920" height="1080" fill="url(#base)"/><rect width="1920" height="1080" fill="url(#grid)"/>
<ellipse cx="1430" cy="490" rx="540" ry="470" fill="url(#red)" filter="url(#blur)"/>
<path d="M1040 1080 1450 0h185l-340 1080Z" fill="#e10600" opacity=".09"/>
<path d="M1190 1080 1600 0h18l-410 1080Z" fill="#ff3030" opacity=".22"/>
<path d="M1360 0h4l-410 1080h-4Z" fill="#fff" opacity=".15"/>
<path d="M1150 650 1390 130l260 450-155 0-106-205-130 275Z" fill="none" stroke="url(#metal)" stroke-width="18" opacity=".45"/>
<path d="M1240 730 1435 300l140 240-78 0-58-100-115 290Z" fill="#e10600" opacity=".28"/>
<g fill="none" stroke="#e10600" stroke-width="2" opacity=".5"><path d="M0 870h510l80-80h250"/><path d="M0 895h460l80-80h210"/><path d="M1920 210h-290l-55 55h-100"/><path d="M1920 238h-270l-60 60h-95"/></g>
<g fill="#fff" opacity=".4"><circle cx="1500" cy="200" r="3"/><circle cx="1630" cy="300" r="2"/><circle cx="1270" cy="820" r="2"/><circle cx="1720" cy="700" r="3"/></g>
<rect x="32" y="32" width="1856" height="1016" rx="8" fill="none" stroke="#fff" stroke-opacity=".09"/>
</svg>